<svg id="visual" viewBox="0 0 1920 1080" width="1920" height="1080" xmlns="http://www.w3.org/2000/svg" xmlns:xlink="http://www.w3.org/1999/xlink" version="1.1"><path d="M0 217L29.2 202.7C58.3 188.3 116.7 159.7 174.8 150.7C233 141.7 291 152.3 349.2 150.5C407.3 148.7 465.7 134.3 523.8 130.7C582 127 640 134 698.2 150.2C756.3 166.3 814.7 191.7 872.8 193.5C931 195.3 989 173.7 1047.2 162.8C1105.3 152 1163.7 152 1221.8 162.8C1280 173.7 1338 195.3 1396.2 199C1454.3 202.7 1512.7 188.3 1570.8 165C1629 141.7 1687 109.3 1745.2 96.7C1803.3 84 1861.7 91 1890.8 94.5L1920 98L1920 0L1890.8 0C1861.7 0 1803.3 0 1745.2 0C1687 0 1629 0 1570.8 0C1512.7 0 1454.3 0 1396.2 0C1338 0 1280 0 1221.8 0C1163.7 0 1105.3 0 1047.2 0C989 0 931 0 872.8 0C814.7 0 756.3 0 698.2 0C640 0 582 0 523.8 0C465.7 0 407.3 0 349.2 0C291 0 233 0 174.8 0C116.7 0 58.3 0 29.2 0L0 0Z" fill="#00010a"></path><path d="M0 336L29.2 323.3C58.3 310.7 116.7 285.3 174.8 285.3C233 285.3 291 310.7 349.2 298.2C407.3 285.7 465.7 235.3 523.8 224.5C582 213.7 640 242.3 698.2 269.3C756.3 296.3 814.7 321.7 872.8 330.7C931 339.7 989 332.3 1047.2 317.8C1105.3 303.3 1163.7 281.7 1221.8 290.7C1280 299.7 1338 339.3 1396.2 353.8C1454.3 368.3 1512.7 357.7 1570.8 336C1629 314.3 1687 281.7 1745.2 252.8C1803.3 224 1861.7 199 1890.8 186.5L1920 174L1920 96L1890.8 92.5C1861.7 89 1803.3 82 1745.2 94.7C1687 107.3 1629 139.7 1570.8 163C1512.7 186.3 1454.3 200.7 1396.2 197C1338 193.3 1280 171.7 1221.8 160.8C1163.7 150 1105.3 150 1047.2 160.8C989 171.7 931 193.3 872.8 191.5C814.7 189.7 756.3 164.3 698.2 148.2C640 132 582 125 523.8 128.7C465.7 132.3 407.3 146.7 349.2 148.5C291 150.3 233 139.7 174.8 148.7C116.7 157.7 58.3 186.3 29.2 200.7L0 215Z" fill="#010319"></path><path d="M0 573L29.2 591C58.3 609 116.7 645 174.8 666.7C233 688.3 291 695.7 349.2 649C407.3 602.3 465.7 501.7 523.8 463.8C582 426 640 451 698.2 474.3C756.3 497.7 814.7 519.3 872.8 523C931 526.7 989 512.3 1047.2 496.2C1105.3 480 1163.7 462 1221.8 483.5C1280 505 1338 566 1396.2 618.2C1454.3 670.3 1512.7 713.7 1570.8 712C1629 710.3 1687 663.7 1745.2 645.7C1803.3 627.7 1861.7 638.3 1890.8 643.7L1920 649L1920 172L1890.8 184.5C1861.7 197 1803.3 222 1745.2 250.8C1687 279.7 1629 312.3 1570.8 334C1512.7 355.7 1454.3 366.3 1396.2 351.8C1338 337.3 1280 297.7 1221.8 288.7C1163.7 279.7 1105.3 301.3 1047.2 315.8C989 330.3 931 337.7 872.8 328.7C814.7 319.7 756.3 294.3 698.2 267.3C640 240.3 582 211.7 523.8 222.5C465.7 233.3 407.3 283.7 349.2 296.2C291 308.7 233 283.3 174.8 283.3C116.7 283.3 58.3 308.7 29.2 321.3L0 334Z" fill="#030423"></path><path d="M0 962L29.2 938.7C58.3 915.3 116.7 868.7 174.8 854.3C233 840 291 858 349.2 881.3C407.3 904.7 465.7 933.3 523.8 920.7C582 908 640 854 698.2 848.7C756.3 843.3 814.7 886.7 872.8 890.3C931 894 989 858 1047.2 847.2C1105.3 836.3 1163.7 850.7 1221.8 856C1280 861.3 1338 857.7 1396.2 870.3C1454.3 883 1512.7 912 1570.8 904.8C1629 897.7 1687 854.3 1745.2 841.7C1803.3 829 1861.7 847 1890.8 856L1920 865L1920 647L1890.8 641.7C1861.7 636.3 1803.3 625.7 1745.2 643.7C1687 661.7 1629 708.3 1570.8 710C1512.7 711.7 1454.3 668.3 1396.2 616.2C1338 564 1280 503 1221.8 481.5C1163.7 460 1105.3 478 1047.2 494.2C989 510.3 931 524.7 872.8 521C814.7 517.3 756.3 495.7 698.2 472.3C640 449 582 424 523.8 461.8C465.7 499.7 407.3 600.3 349.2 647C291 693.7 233 686.3 174.8 664.7C116.7 643 58.3 607 29.2 589L0 571Z" fill="#03052e"></path><path d="M0 1081L29.2 1081C58.3 1081 116.7 1081 174.8 1081C233 1081 291 1081 349.2 1081C407.3 1081 465.7 1081 523.8 1081C582 1081 640 1081 698.2 1081C756.3 1081 814.7 1081 872.8 1081C931 1081 989 1081 1047.2 1081C1105.3 1081 1163.7 1081 1221.8 1081C1280 1081 1338 1081 1396.2 1081C1454.3 1081 1512.7 1081 1570.8 1081C1629 1081 1687 1081 1745.2 1081C1803.3 1081 1861.7 1081 1890.8 1081L1920 1081L1920 863L1890.8 854C1861.7 845 1803.3 827 1745.2 839.7C1687 852.3 1629 895.7 1570.8 902.8C1512.7 910 1454.3 881 1396.2 868.3C1338 855.7 1280 859.3 1221.8 854C1163.7 848.7 1105.3 834.3 1047.2 845.2C989 856 931 892 872.8 888.3C814.7 884.7 756.3 841.3 698.2 846.7C640 852 582 906 523.8 918.7C465.7 931.3 407.3 902.7 349.2 879.3C291 856 233 838 174.8 852.3C116.7 866.7 58.3 913.3 29.2 936.7L0 960Z" fill="#000638"></path></svg>